<?xml version="1.0" standalone="no"?>
<!DOCTYPE svg PUBLIC "-//W3C//DTD SVG 20010904//EN"
 "http://www.w3.org/TR/2001/REC-SVG-20010904/DTD/svg10.dtd">
<svg version="1.0" xmlns="http://www.w3.org/2000/svg"
 width="512.000000pt" height="512.000000pt" viewBox="0 0 512.000000 512.000000"
 preserveAspectRatio="xMidYMid meet">
<metadata>
Created by potrace 1.14, written by Peter Selinger 2001-2017
</metadata>
<g transform="translate(0.000000,512.000000) scale(0.100000,-0.100000)"
fill="#000000" stroke="none">
<path d="M3570 4325 c-102 -19 -150 -34 -230 -74 -116 -58 -159 -88 -246 -175
-171 -172 -236 -330 -230 -556 5 -199 60 -307 149 -293 61 9 105 78 85 133 -6
14 -16 55 -23 93 -30 159 20 329 137 458 35 39 153 126 210 155 173 88 415 87
593 -3 248 -124 395 -373 396 -671 0 -161 -20 -264 -76 -389 -46 -100 -86
-156 -176 -244 -131 -129 -305 -201 -566 -234 -87 -11 -390 -14 -1531 -14
-1297 -1 -1425 -3 -1448 -18 -45 -29 -61 -78 -40 -127 28 -67 -73 -63 1514
-60 790 1 1455 5 1477 8 22 3 60 8 85 11 293 39 495 130 665 300 234 233 331
533 292 901 -10 99 -51 233 -97 325 -123 241 -364 422 -635 474 -61 12 -242
12 -305 0z"/>
<path d="M3538 3974 c-106 -27 -235 -118 -298 -209 -58 -85 -87 -227 -64 -321
21 -88 105 -189 187 -225 70 -31 182 -32 248 -2 100 45 161 130 161 226 1 53
-20 118 -48 148 -23 26 -78 33 -114 14 -50 -26 -65 -70 -45 -139 7 -24 4 -33
-15 -48 -33 -27 -92 -24 -129 7 -108 92 -23 287 151 344 164 54 352 -63 418
-259 54 -161 5 -334 -130 -457 -73 -67 -200 -114 -345 -127 -33 -3 -485 -6
-1004 -6 -809 -1 -948 -3 -972 -16 -73 -37 -70 -143 6 -178 25 -11 189 -13
1015 -11 542 1 996 5 1010 9 14 3 45 9 70 12 68 9 203 57 262 93 102 62 193
161 246 266 51 102 66 168 66 290 -1 93 -5 122 -28 189 -100 291 -386 468
-648 400z"/>
<path d="M1083 2090 c-26 -11 -50 -45 -56 -81 -7 -35 21 -88 52 -102 17 -7
177 -11 476 -12 456 -2 526 -6 640 -42 107 -34 195 -113 247 -222 69 -144 40
-318 -73 -432 -72 -73 -118 -94 -214 -94 -63 0 -89 5 -120 22 -103 55 -161
161 -133 244 19 56 87 91 132 67 30 -16 36 -28 24 -57 -31 -84 53 -162 137
-127 51 22 79 88 72 168 -13 143 -136 238 -294 225 -162 -13 -276 -139 -280
-310 -3 -156 73 -287 218 -372 112 -66 223 -85 346 -59 193 39 371 229 419
445 3 13 6 57 8 98 9 230 -127 457 -334 560 -162 79 -197 83 -755 87 -289 2
-499 0 -512 -6z"/>
<path d="M2968 2083 c-66 -41 -63 -137 5 -175 16 -9 135 -13 462 -14 443 -1
496 -4 595 -25 209 -45 357 -227 343 -424 -10 -142 -112 -289 -230 -329 -127
-43 -278 15 -332 128 -50 103 4 216 95 200 45 -8 57 -25 46 -66 -29 -104 95
-181 167 -104 72 76 55 226 -35 304 -200 177 -512 10 -498 -268 11 -236 239
-427 492 -415 267 13 500 279 502 571 1 262 -175 500 -430 583 -132 43 -228
49 -705 50 -404 1 -453 -1 -477 -16z"/>
</g>
</svg>
